<svg width="40" height="40" viewBox="0 0 40 40" fill="none" xmlns="http://www.w3.org/2000/svg">
<path d="M6.86382 8.03784H2.95093V15.5357H14.3616C14.3616 11.3947 11.0047 8.03784 6.86382 8.03784Z" fill="#FFCE6E"/>
<path d="M36.428 15.5356H2.95093V24.8024H36.428V21.3786C38.0414 21.3786 39.3494 20.0706 39.3494 18.4571C39.3495 16.8436 38.0415 15.5356 36.428 15.5356Z" fill="#FF462E"/>
<path opacity="0.1" d="M7.54772 18.7767V15.5357H2.95093V24.8023H7.54772V18.7767ZM7.54772 8.07026C7.32033 8.04916 7.09211 8.03835 6.86374 8.03784H2.95093V15.5357H7.54772V8.07026Z" fill="black"/>
<path d="M4.94577 21.3786V8.03779C4.94577 6.85162 3.98428 5.89014 2.79811 5.89014C1.61194 5.89014 0.650452 6.85162 0.650452 8.03779V34.1099H4.94577V28.2189H35.0541V34.1099H39.3494V21.3786H4.94577Z" fill="#B8703F"/>
<path d="M0.650469 34.7604H4.94578C5.1183 34.7604 5.28375 34.6918 5.40573 34.5699C5.52772 34.4479 5.59625 34.2824 5.59625 34.1099V28.8694H28.1777C28.3502 28.8694 28.5156 28.8009 28.6376 28.6789C28.7596 28.5569 28.8281 28.3915 28.8281 28.219C28.8281 28.0465 28.7596 27.881 28.6376 27.759C28.5156 27.637 28.3502 27.5685 28.1777 27.5685H4.94578C4.77327 27.5685 4.60782 27.637 4.48583 27.759C4.36384 27.881 4.29531 28.0465 4.29531 28.219V33.4594H1.30102V8.03787C1.30102 7.21225 1.97266 6.54068 2.7982 6.54068C3.62375 6.54068 4.29539 7.21232 4.29539 8.03787V21.3787C4.29539 21.7276 4.59727 22.0291 4.94586 22.0291H38.6991V33.4594H35.7047V28.219C35.7047 28.1335 35.6879 28.049 35.6552 27.97C35.6225 27.8911 35.5746 27.8194 35.5142 27.759C35.4538 27.6986 35.3821 27.6507 35.3031 27.618C35.2242 27.5853 35.1396 27.5685 35.0542 27.5685H30.7797C30.6072 27.5685 30.4417 27.637 30.3197 27.759C30.1978 27.881 30.1292 28.0465 30.1292 28.219C30.1292 28.3915 30.1978 28.5569 30.3197 28.6789C30.4417 28.8009 30.6072 28.8694 30.7797 28.8694H34.4037V34.1099C34.4037 34.2824 34.4722 34.4479 34.5942 34.5699C34.7162 34.6918 34.8816 34.7604 35.0541 34.7604H39.3495C39.522 34.7604 39.6874 34.6918 39.8094 34.5699C39.9314 34.4479 39.9999 34.2824 39.9999 34.1099V21.3787C39.9999 21.2061 39.9314 21.0407 39.8094 20.9187C39.6874 20.7967 39.522 20.7282 39.3495 20.7282H39.1831C39.6932 20.1105 40 19.319 40 18.4572C40 16.4876 38.3977 14.8852 36.428 14.8852H14.9843C14.8356 13.006 14.0474 11.2469 12.7233 9.87639C12.6034 9.75232 12.4392 9.68094 12.2667 9.67797C12.0942 9.67499 11.9276 9.74066 11.8035 9.86053C11.6794 9.98039 11.6081 10.1446 11.6051 10.3171C11.6021 10.4896 11.6678 10.6562 11.7877 10.7803C12.8759 11.9069 13.5353 13.3454 13.6805 14.8853H5.59633V8.6885H6.86391C7.90164 8.6885 8.89844 8.91467 9.82641 9.36076C9.83406 9.36443 9.84188 9.36717 9.84953 9.37045C9.93302 9.40848 10.0236 9.42832 10.1154 9.42865C10.234 9.42873 10.3504 9.39639 10.4519 9.33511C10.5535 9.27384 10.6363 9.18596 10.6916 9.081C10.7326 9.00301 10.7574 8.91749 10.7644 8.82964C10.7714 8.74178 10.7604 8.65343 10.7322 8.56993C10.704 8.48643 10.6591 8.40954 10.6003 8.34391C10.5415 8.27829 10.4699 8.22531 10.39 8.18818C9.28469 7.65686 8.09836 7.3874 6.86383 7.3874H5.51922C5.22508 6.15725 4.11711 5.23975 2.79828 5.23975C1.25523 5.23975 0 6.4949 0 8.03787V34.1099C0 34.2824 0.0685313 34.4479 0.190518 34.5699C0.312504 34.6918 0.477954 34.7604 0.650469 34.7604ZM5.59633 16.1862H36.428C37.6803 16.1862 38.6991 17.2049 38.6991 18.4572C38.6991 19.7094 37.6803 20.7282 36.428 20.7282H5.59633V16.1862Z" fill="black"/>
</svg>
