<svg width="40" height="40" viewBox="0 0 40 40" fill="none" xmlns="http://www.w3.org/2000/svg">
<path d="M20 19.375H1.875C1.54348 19.375 1.22554 19.2433 0.991117 19.0089C0.756696 18.7745 0.625 18.4565 0.625 18.125V16.875H39.375V18.125C39.374 18.4562 39.242 18.7736 39.0078 19.0078C38.7736 19.242 38.4562 19.374 38.125 19.375H20Z" fill="#DA684E"/>
<path d="M39.375 11.25V16.875H28.125V11.25H29.425C29.3892 11.4564 29.3725 11.6656 29.375 11.875C29.375 13.0353 29.8359 14.1481 30.6564 14.9686C31.4769 15.7891 32.5897 16.25 33.75 16.25C34.9103 16.25 36.0231 15.7891 36.8436 14.9686C37.6641 14.1481 38.125 13.0353 38.125 11.875C38.1275 11.6656 38.1108 11.4564 38.075 11.25H39.375Z" fill="#F7F3EB"/>
<path d="M38.75 21.25V39.375H20V19.375H38.75V21.25ZM36.25 36.875V33.125H22.5V36.875H36.25ZM36.25 31.25V27.5H22.5V31.25H36.25ZM36.25 25.625V21.875H22.5V25.625H36.25Z" fill="#DA684E"/>
<path d="M38.075 11.2499C37.9256 10.2094 37.406 9.25762 36.6116 8.56916C35.8172 7.8807 34.8012 7.50171 33.75 7.50171C32.6988 7.50171 31.6828 7.8807 30.8884 8.56916C30.094 9.25762 29.5744 10.2094 29.425 11.2499C29.3892 11.4563 29.3725 11.6655 29.375 11.8749C29.375 13.0353 29.8359 14.1481 30.6564 14.9685C31.4769 15.789 32.5897 16.2499 33.75 16.2499C34.9103 16.2499 36.0231 15.789 36.8436 14.9685C37.6641 14.1481 38.125 13.0353 38.125 11.8749C38.1275 11.6655 38.1108 11.4563 38.075 11.2499Z" fill="#D7DBBE"/>
<path d="M22.5 33.125H36.25V36.875H22.5V33.125ZM22.5 27.5H36.25V31.25H22.5V27.5ZM22.5 21.875H36.25V25.625H22.5V21.875Z" fill="#D6CEC1"/>
<path d="M28.125 15V16.875H11.875V15H28.125Z" fill="#80786A"/>
<path d="M19.375 5.625V6.25H16.875V5.625C16.875 4.96196 16.6116 4.32607 16.1428 3.85723C15.6739 3.38839 15.038 3.125 14.375 3.125C13.712 3.125 13.0761 3.38839 12.6072 3.85723C12.1384 4.32607 11.875 4.96196 11.875 5.625V16.875H9.375V5.625C9.375 4.29892 9.90178 3.02715 10.8395 2.08947C11.7771 1.15178 13.0489 0.625 14.375 0.625C15.7011 0.625 16.9729 1.15178 17.9105 2.08947C18.8482 3.02715 19.375 4.29892 19.375 5.625Z" fill="#CDC3B4"/>
<path d="M10.625 21.25H17.5V37.5H10.625V21.25Z" fill="#DA684E"/>
<path d="M17.5 19.375H1.875C1.6678 19.3743 1.46393 19.3228 1.28125 19.225L1.25 19.375V39.375H20V19.375H17.5ZM17.5 37.5H3.75V21.25H17.5V37.5Z" fill="#EDE9E1"/>
<path d="M3.75 21.25H10.625V37.5H3.75V21.25Z" fill="#DA684E"/>
<path d="M1.25 15H7.5V16.875H1.25V15Z" fill="#869F3C"/>
<path d="M1.25 13.125H7.5V15H1.25V13.125Z" fill="#FFCF4F"/>
<path d="M36.8125 15C35.9947 15.8016 34.8952 16.2506 33.75 16.2506C32.6048 16.2506 31.5053 15.8016 30.6875 15H28.125V16.875H39.375V15H36.8125Z" fill="#80786A"/>
<path d="M22.5 25.625H36.25V26.875H22.5V25.625Z" fill="#BD4C3D"/>
<path d="M22.5 21.875H36.25V23.125H22.5V21.875Z" fill="#E8E4DC"/>
<path d="M22.5 31.25H36.25V32.5H22.5V31.25Z" fill="#BD4C3D"/>
<path d="M22.5 27.5H36.25V28.75H22.5V27.5Z" fill="#E8E4DC"/>
<path d="M22.5 36.875H36.25V38.125H22.5V36.875Z" fill="#BD4C3D"/>
<path d="M22.5 33.125H36.25V34.375H22.5V33.125Z" fill="#E8E4DC"/>
<path d="M11.25 21.25H17.5V22.5H11.25V21.25ZM11.25 23.75H17.5V25H11.25V23.75ZM11.25 26.25H17.5V27.5H11.25V26.25ZM11.25 28.75H17.5V30H11.25V28.75ZM11.25 31.25H17.5V32.5H11.25V31.25ZM11.25 33.75H17.5V35H11.25V33.75ZM11.25 36.25H17.5V37.5H11.25V36.25ZM3.75 21.25H10V22.5H3.75V21.25ZM3.75 23.75H10V25H3.75V23.75ZM3.75 26.25H10V27.5H3.75V26.25ZM3.75 28.75H10V30H3.75V28.75ZM3.75 31.25H10V32.5H3.75V31.25ZM3.75 33.75H10V35H3.75V33.75ZM3.75 36.25H10V37.5H3.75V36.25Z" fill="#BD4C3D"/>
<path d="M33.75 15C35.4759 15 36.875 13.6009 36.875 11.875C36.875 10.1491 35.4759 8.75 33.75 8.75C32.0241 8.75 30.625 10.1491 30.625 11.875C30.625 13.6009 32.0241 15 33.75 15Z" fill="#E8E4DC"/>
<path d="M39.375 16.875H0.625V18.125C0.626098 18.3451 0.686091 18.5609 0.79875 18.75C0.907636 18.5606 1.06438 18.4032 1.25327 18.2935C1.44216 18.1838 1.65657 18.1257 1.875 18.125H38.125C38.3437 18.1246 38.5585 18.1822 38.7476 18.292C38.9367 18.4018 39.0932 18.5599 39.2012 18.75C39.3141 18.561 39.3741 18.3451 39.375 18.125V16.875Z" fill="#FF9873"/>
<path d="M20 19.375H38.75V20.625H20V19.375Z" fill="#BD4C3D"/>
<path d="M1.875 20.625H20V19.375H1.875C1.6678 19.3743 1.46393 19.3228 1.28125 19.225L1.25 19.375V20C1.25 20.1657 1.31585 20.3247 1.43306 20.4419C1.55027 20.5591 1.70924 20.625 1.875 20.625Z" fill="#AFA59B"/>
<path d="M33.75 13.75C33.0296 13.7501 32.3313 13.5014 31.7732 13.0458C31.2151 12.5902 30.8316 11.9559 30.6875 11.25C30.5953 11.7039 30.6052 12.1725 30.7164 12.6221C30.8276 13.0717 31.0373 13.4909 31.3304 13.8495C31.6235 14.2081 31.9926 14.4971 32.4111 14.6955C32.8295 14.8939 33.2869 14.9969 33.75 14.9969C34.2131 14.9969 34.6705 14.8939 35.0889 14.6955C35.5074 14.4971 35.8765 14.2081 36.1696 13.8495C36.4627 13.4909 36.6724 13.0717 36.7836 12.6221C36.8948 12.1725 36.9047 11.7039 36.8125 11.25C36.6684 11.9559 36.2849 12.5902 35.7268 13.0458C35.1687 13.5014 34.4704 13.7501 33.75 13.75Z" fill="#CDC3B4"/>
<path d="M19.3319 5C19.0354 5.00525 18.7449 4.91653 18.5019 4.74655C18.259 4.57658 18.0761 4.33406 17.9794 4.05375C17.7784 3.4213 17.3814 2.86923 16.8457 2.47751C16.3101 2.0858 15.6636 1.87477 15 1.875H13.7738C12.9387 1.87517 12.1379 2.20696 11.5474 2.79743C10.957 3.3879 10.6252 4.1887 10.625 5.02375V13.75C10.6251 14.0777 10.4965 14.3922 10.2669 14.626C10.0373 14.8598 9.72511 14.9941 9.3975 15C9.39458 14.9999 9.39166 15.0004 9.38894 15.0015C9.38621 15.0025 9.38372 15.0041 9.38163 15.0062C9.37953 15.0082 9.37786 15.0107 9.37672 15.0134C9.37558 15.0161 9.375 15.0189 9.375 15.0219V16.8512C9.375 16.8575 9.3775 16.8636 9.38196 16.868C9.38641 16.8725 9.39245 16.875 9.39875 16.875H11.8512C11.8575 16.875 11.8636 16.8725 11.868 16.868C11.8725 16.8636 11.875 16.8575 11.875 16.8512V5.625C11.874 4.98647 12.1178 4.37185 12.5562 3.90763C12.9947 3.4434 13.5943 3.16487 14.2319 3.12938C14.5815 3.12547 14.9284 3.19176 15.252 3.32431C15.5756 3.45686 15.8693 3.65298 16.1158 3.90106C16.3622 4.14913 16.5564 4.44413 16.6868 4.76859C16.8172 5.09305 16.8812 5.44037 16.875 5.79V6.2275C16.875 6.2338 16.8775 6.23984 16.882 6.24429C16.8864 6.24875 16.8925 6.25125 16.8988 6.25125H19.375V5.625C19.3736 5.41597 19.3592 5.20724 19.3319 5Z" fill="#AFA59B"/>
<path d="M13.75 15C13.75 15.3315 13.8817 15.6495 14.1161 15.8839C14.3505 16.1183 14.6685 16.25 15 16.25H39.375V16.875H11.875V15H13.75Z" fill="#635D50"/>
<path d="M6.25 15.625C6.25 15.7908 6.18415 15.9497 6.06694 16.0669C5.94973 16.1842 5.79076 16.25 5.625 16.25H3.125C2.95924 16.25 2.80027 16.1842 2.68306 16.0669C2.56585 15.9497 2.5 15.7908 2.5 15.625V15H1.25V16.875H7.5V15H6.25V15.625Z" fill="#658F41"/>
<path d="M6.25 13.125H7.5V15H6.25V13.125ZM1.25 13.125H2.5V15H1.25V13.125Z" fill="#F4BE2B"/>
<path d="M39.375 10.625H38.5844C38.3088 9.55186 37.6841 8.60087 36.8086 7.92181C35.9332 7.24274 34.8567 6.87419 33.7487 6.87419C32.6408 6.87419 31.5643 7.24274 30.6889 7.92181C29.8134 8.60087 29.1887 9.55186 28.9131 10.625H28.125C27.9592 10.625 27.8003 10.6908 27.6831 10.8081C27.5658 10.9253 27.5 11.0842 27.5 11.25V14.375H12.5V13.75H14.375C14.5408 13.75 14.6997 13.6842 14.8169 13.5669C14.9342 13.4497 15 13.2908 15 13.125V9.375H13.75V12.5H12.5V5.625C12.5 5.12772 12.6975 4.65081 13.0492 4.29917C13.4008 3.94754 13.8777 3.75 14.375 3.75C14.8723 3.75 15.3492 3.94754 15.7008 4.29917C16.0525 4.65081 16.25 5.12772 16.25 5.625V6.25C16.25 6.41576 16.3158 6.57473 16.4331 6.69194C16.5503 6.80915 16.7092 6.875 16.875 6.875H19.375C19.5408 6.875 19.6997 6.80915 19.8169 6.69194C19.9342 6.57473 20 6.41576 20 6.25V5.625C20 4.13316 19.4074 2.70242 18.3525 1.64752C17.2976 0.592632 15.8668 0 14.375 0C12.8832 0 11.4524 0.592632 10.3975 1.64752C9.34263 2.70242 8.75 4.13316 8.75 5.625V16.25H8.125V13.125C8.125 12.9592 8.05915 12.8003 7.94194 12.6831C7.82473 12.5658 7.66576 12.5 7.5 12.5H1.25C1.08424 12.5 0.925268 12.5658 0.808058 12.6831C0.690848 12.8003 0.625 12.9592 0.625 13.125V16.25C0.45924 16.25 0.300269 16.3158 0.183058 16.4331C0.065848 16.5503 0 16.7092 0 16.875L0 18.125C0.00132919 18.3868 0.0576543 18.6453 0.165324 18.8839C0.272993 19.1225 0.429603 19.3358 0.625 19.51V39.375C0.625 39.5408 0.690848 39.6997 0.808058 39.8169C0.925268 39.9342 1.08424 40 1.25 40H38.75C38.9158 40 39.0747 39.9342 39.1919 39.8169C39.3092 39.6997 39.375 39.5408 39.375 39.375V19.5125C39.5708 19.3381 39.7277 19.1244 39.8354 18.8854C39.9431 18.6463 39.9992 18.3872 40 18.125V11.25C40 11.0842 39.9342 10.9253 39.8169 10.8081C39.6997 10.6908 39.5408 10.625 39.375 10.625ZM38.75 16.25H36.165C36.9476 15.8183 37.6001 15.1848 38.0547 14.4154C38.5094 13.6459 38.7494 12.7687 38.75 11.875V16.25ZM38.75 18.125C38.75 18.2908 38.6842 18.4497 38.5669 18.5669C38.4497 18.6842 38.2908 18.75 38.125 18.75H1.875C1.77265 18.7494 1.67192 18.7244 1.58125 18.6769C1.48161 18.6231 1.39828 18.5434 1.34 18.4463C1.28172 18.3492 1.25063 18.2382 1.25 18.125V17.5H38.75V18.125ZM1.875 15.625H6.875V16.25H1.875V15.625ZM37.5 11.875C37.5 12.8696 37.1049 13.8234 36.4016 14.5267C35.6984 15.2299 34.7446 15.625 33.75 15.625C32.7554 15.625 31.8016 15.2299 31.0983 14.5267C30.3951 13.8234 30 12.8696 30 11.875H37.5ZM33.75 8.125C34.5238 8.12811 35.2777 8.36986 35.909 8.81727C36.5403 9.26469 37.0182 9.89597 37.2775 10.625H30.2225C30.4818 9.89597 30.9597 9.26469 31.591 8.81727C32.2223 8.36986 32.9762 8.12811 33.75 8.125ZM31.335 16.25H28.75V11.875C28.7506 12.7687 28.9906 13.6459 29.4453 14.4154C29.8999 15.1848 30.5524 15.8183 31.335 16.25ZM27.5 15.625V16.25H12.5V15.625H27.5ZM10 5.625C10 4.46468 10.4609 3.35188 11.2814 2.53141C12.1019 1.71094 13.2147 1.25 14.375 1.25C15.5353 1.25 16.6481 1.71094 17.4686 2.53141C18.2891 3.35188 18.75 4.46468 18.75 5.625H17.5C17.5 4.7962 17.1708 4.00134 16.5847 3.41529C15.9987 2.82924 15.2038 2.5 14.375 2.5C13.5462 2.5 12.7513 2.82924 12.1653 3.41529C11.5792 4.00134 11.25 4.7962 11.25 5.625V16.25H10V5.625ZM6.875 13.75V14.375H1.875V13.75H6.875ZM1.875 20H19.375V38.75H1.875V20ZM38.125 38.75H20.625V20H38.125V38.75Z" fill="black"/>
<path d="M22.5 26.25H36.25C36.4158 26.25 36.5747 26.1842 36.6919 26.0669C36.8092 25.9497 36.875 25.7908 36.875 25.625V21.875C36.875 21.7092 36.8092 21.5503 36.6919 21.4331C36.5747 21.3158 36.4158 21.25 36.25 21.25H22.5C22.3342 21.25 22.1753 21.3158 22.0581 21.4331C21.9408 21.5503 21.875 21.7092 21.875 21.875V25.625C21.875 25.7908 21.9408 25.9497 22.0581 26.0669C22.1753 26.1842 22.3342 26.25 22.5 26.25ZM23.125 22.5H35.625V25H23.125V22.5ZM22.5 31.875H36.25C36.4158 31.875 36.5747 31.8092 36.6919 31.6919C36.8092 31.5747 36.875 31.4158 36.875 31.25V27.5C36.875 27.3342 36.8092 27.1753 36.6919 27.0581C36.5747 26.9408 36.4158 26.875 36.25 26.875H22.5C22.3342 26.875 22.1753 26.9408 22.0581 27.0581C21.9408 27.1753 21.875 27.3342 21.875 27.5V31.25C21.875 31.4158 21.9408 31.5747 22.0581 31.6919C22.1753 31.8092 22.3342 31.875 22.5 31.875ZM23.125 28.125H35.625V30.625H23.125V28.125ZM22.5 37.5H36.25C36.4158 37.5 36.5747 37.4342 36.6919 37.3169C36.8092 37.1997 36.875 37.0408 36.875 36.875V33.125C36.875 32.9592 36.8092 32.8003 36.6919 32.6831C36.5747 32.5658 36.4158 32.5 36.25 32.5H22.5C22.3342 32.5 22.1753 32.5658 22.0581 32.6831C21.9408 32.8003 21.875 32.9592 21.875 33.125V36.875C21.875 37.0408 21.9408 37.1997 22.0581 37.3169C22.1753 37.4342 22.3342 37.5 22.5 37.5ZM23.125 33.75H35.625V36.25H23.125V33.75ZM17.5 20.625H3.75C3.58424 20.625 3.42527 20.6908 3.30806 20.8081C3.19085 20.9253 3.125 21.0842 3.125 21.25V37.5C3.125 37.6658 3.19085 37.8247 3.30806 37.9419C3.42527 38.0592 3.58424 38.125 3.75 38.125H17.5C17.6658 38.125 17.8247 38.0592 17.9419 37.9419C18.0592 37.8247 18.125 37.6658 18.125 37.5V21.25C18.125 21.0842 18.0592 20.9253 17.9419 20.8081C17.8247 20.6908 17.6658 20.625 17.5 20.625ZM4.375 21.875H10V36.875H4.375V21.875ZM16.875 36.875H11.25V21.875H16.875V36.875Z" fill="black"/>
<path d="M11.875 28.125H13.125V30.625H11.875V28.125ZM8.125 28.125H9.375V30.625H8.125V28.125ZM28.125 23.125H30.625V24.375H28.125V23.125ZM28.125 28.75H30.625V30H28.125V28.75ZM28.125 34.375H30.625V35.625H28.125V34.375Z" fill="black"/>
</svg>
