<svg width="15" height="15" viewBox="0 0 15 15" fill="none" xmlns="http://www.w3.org/2000/svg">
<path fill-rule="evenodd" clip-rule="evenodd" d="M10.3311 3.04532C9.96251 2.6684 9.52126 2.37025 9.03405 2.16895C8.54685 1.96765 8.02384 1.86738 7.49673 1.87423C6.39156 1.87423 5.44458 2.26972 4.66898 3.04532C4.28719 3.41017 3.98582 3.85075 3.78416 4.33882C3.58249 4.8269 3.48499 5.35171 3.4979 5.87965C3.4979 6.62009 3.67587 7.28583 4.02302 7.88346L4.09772 7.99551L7.41983 13.1237L10.9485 7.93179C11.3178 7.31239 11.5086 6.60294 11.4999 5.88185C11.4999 4.76789 11.1067 3.82311 10.3311 3.04751V3.04532Z" fill="black"/>
<path fill-rule="evenodd" clip-rule="evenodd" d="M7.49448 4.08447C7.24128 4.07556 6.9891 4.12095 6.7549 4.21759C6.52069 4.31423 6.30988 4.45988 6.13664 4.64475C5.95517 4.82059 5.8118 5.03187 5.71541 5.26545C5.61903 5.49904 5.5717 5.74995 5.57636 6.00259C5.57636 6.5365 5.76312 6.98472 6.13664 7.36922C6.31256 7.55058 6.52385 7.69389 6.75742 7.79027C6.99099 7.88664 7.24185 7.93403 7.49448 7.9295C7.7483 7.93317 8.00023 7.88542 8.2351 7.78913C8.46997 7.69284 8.68292 7.55 8.86111 7.36922C9.04229 7.19121 9.18554 6.97835 9.28221 6.74347C9.37888 6.50859 9.42697 6.25656 9.42359 6.00259C9.42783 5.7498 9.3801 5.49884 9.28334 5.26526C9.18659 5.03169 9.04287 4.82048 8.86111 4.64475C8.68567 4.46033 8.47321 4.31507 8.23769 4.21852C8.00217 4.12196 7.7489 4.07628 7.49448 4.08447Z" fill="#EAE5E2"/>
</svg>
