<svg width="40" height="40" viewBox="0 0 40 40" fill="none" xmlns="http://www.w3.org/2000/svg">
<g clip-path="url(#clip0_37_159)">
<path d="M33.125 13.125V15.625C33.124 15.9562 32.992 16.2736 32.7578 16.5078C32.5236 16.742 32.2062 16.874 31.875 16.875H30.625V11.875H31.875C32.2062 11.876 32.5236 12.008 32.7578 12.2422C32.992 12.4764 33.124 12.7938 33.125 13.125V13.125ZM25.625 11.875V16.875H24.375C24.0438 16.874 23.7264 16.742 23.4922 16.5078C23.258 16.2736 23.126 15.9562 23.125 15.625V13.125C23.126 12.7938 23.258 12.4764 23.4922 12.2422C23.7264 12.008 24.0438 11.876 24.375 11.875H25.625Z" fill="#B2876D"/>
<path d="M8.125 12.5V16.875H4.375V12.5H8.125ZM11.875 8.125V12.5H8.125V8.125H11.875Z" fill="#A3D4FF"/>
<path d="M11.875 12.5V16.875H8.125V12.5H11.875ZM8.125 8.125V12.5H4.375V8.125H8.125Z" fill="#65B1FC"/>
<path d="M11.875 8.125H4.375V16.875H11.875V8.125ZM13.75 6.25V18.75H2.5V6.25H13.75Z" fill="#B2876D"/>
<path d="M39.375 28.75V31.25C39.374 31.5812 39.242 31.8986 39.0078 32.1328C38.7736 32.367 38.4562 32.499 38.125 32.5H23.125V28.75H39.375Z" fill="#F2D1A5"/>
<path d="M39.375 25V28.75H23.125V27.5H21.25V25H39.375Z" fill="#F2BB88"/>
<path d="M28.125 3.75V25H21.25V23.125C21.249 22.7938 21.117 22.4764 20.8828 22.2422C20.6486 22.008 20.3312 21.876 20 21.875H16.875V5C16.876 4.66878 17.008 4.35142 17.2422 4.11721C17.4764 3.883 17.7938 3.75099 18.125 3.75H28.125ZM25.625 16.875V11.875H24.375C24.0438 11.876 23.7264 12.008 23.4922 12.2422C23.258 12.4764 23.126 12.7938 23.125 13.125V15.625C23.126 15.9562 23.258 16.2736 23.4922 16.5078C23.7264 16.742 24.0438 16.874 24.375 16.875H25.625Z" fill="#FFF2DE"/>
<path d="M39.375 5V25H28.125V3.75H38.125C38.4562 3.75099 38.7736 3.883 39.0078 4.11721C39.242 4.35142 39.374 4.66878 39.375 5ZM33.125 15.625V13.125C33.124 12.7938 32.992 12.4764 32.7578 12.2422C32.5236 12.008 32.2062 11.876 31.875 11.875H30.625V16.875H31.875C32.2062 16.874 32.5236 16.742 32.7578 16.5078C32.992 16.2736 33.124 15.9562 33.125 15.625Z" fill="#F2D1A5"/>
<path d="M6.25 35L4.375 37.5H2.5V35H6.25ZM19.375 35H21.25V37.5H19.375L17.5 35H19.375Z" fill="#B2876D"/>
<path d="M4.375 32.5V35H0.625V27.5H4.375V32.5ZM23.125 32.5V35H19.375V27.5H23.125V32.5Z" fill="#FF7045"/>
<path d="M21.25 32.5V35H19.375V27.5H21.25V32.5ZM4.375 32.5V35H2.5V27.5H4.375V32.5Z" fill="#FF8257"/>
<path d="M19.375 32.5V35H4.375V32.5H19.375Z" fill="#FFB89C"/>
<path d="M4.375 30H19.375V32.5H4.375V30Z" fill="#FF7045"/>
<path d="M21.25 25V27.5H19.375V30H4.375V27.5H2.5V23.125C2.50099 22.7938 2.633 22.4764 2.86721 22.2422C3.10142 22.008 3.41878 21.876 3.75 21.875H20C20.3312 21.876 20.6486 22.008 20.8828 22.2422C21.117 22.4764 21.249 22.7938 21.25 23.125V25Z" fill="#FF936B"/>
<path d="M8.125 23.125H9.375V28.75H8.125V23.125ZM14.375 23.125H15.625V28.75H14.375V23.125Z" fill="#FF7045"/>
<path d="M0.625 36.875H33.125V38.125H0.625V36.875ZM34.375 36.875H35.625V38.125H34.375V36.875Z" fill="#AFB4C8"/>
<path d="M21.875 35.625H23.125C23.2908 35.625 23.4497 35.5592 23.5669 35.4419C23.6842 35.3247 23.75 35.1658 23.75 35V27.5C23.75 27.3342 23.6842 27.1753 23.5669 27.0581C23.4497 26.9408 23.2908 26.875 23.125 26.875H21.875V23.125C21.875 22.6277 21.6775 22.1508 21.3258 21.7992C20.9742 21.4475 20.4973 21.25 20 21.25H3.75C3.25272 21.25 2.77581 21.4475 2.42417 21.7992C2.07254 22.1508 1.875 22.6277 1.875 23.125V26.875H0.625C0.45924 26.875 0.300269 26.9408 0.183058 27.0581C0.065848 27.1753 0 27.3342 0 27.5L0 35C0 35.1658 0.065848 35.3247 0.183058 35.4419C0.300269 35.5592 0.45924 35.625 0.625 35.625H1.875V36.875H0.625V38.125H33.125V36.875H21.875V35.625ZM22.5 34.375H20V28.125H22.5V34.375ZM18.75 34.375H5V33.125H18.75V34.375ZM17.1875 35.625L18.125 36.875H5.625L6.5625 35.625H17.1875ZM18.75 31.875H5V30.625H18.75V31.875ZM3.125 23.125C3.125 22.9592 3.19085 22.8003 3.30806 22.6831C3.42527 22.5658 3.58424 22.5 3.75 22.5H20C20.1658 22.5 20.3247 22.5658 20.4419 22.6831C20.5592 22.8003 20.625 22.9592 20.625 23.125V26.875H19.375C19.2092 26.875 19.0503 26.9408 18.9331 27.0581C18.8158 27.1753 18.75 27.3342 18.75 27.5V29.375H5V27.5C5 27.3342 4.93415 27.1753 4.81694 27.0581C4.69973 26.9408 4.54076 26.875 4.375 26.875H3.125V23.125ZM1.25 28.125H3.75V34.375H1.25V28.125ZM3.125 36.875V35.625H5L4.0625 36.875H3.125ZM19.6875 36.875L18.75 35.625H20.625V36.875H19.6875Z" fill="black"/>
<path d="M8.125 23.125H9.375V28.75H8.125V23.125ZM14.375 23.125H15.625V28.75H14.375V23.125ZM38.125 3.125H18.125C17.6277 3.125 17.1508 3.32254 16.7992 3.67417C16.4475 4.02581 16.25 4.50272 16.25 5V20.625H17.5V5C17.5 4.83424 17.5658 4.67527 17.6831 4.55806C17.8003 4.44085 17.9592 4.375 18.125 4.375H27.5V24.375H23.125V25.625H38.75V28.125H25V29.375H38.75V31.25C38.75 31.4158 38.6842 31.5747 38.5669 31.6919C38.4497 31.8092 38.2908 31.875 38.125 31.875H25V33.125H38.125C38.6223 33.125 39.0992 32.9275 39.4508 32.5758C39.8025 32.2242 40 31.7473 40 31.25V5C40 4.50272 39.8025 4.02581 39.4508 3.67417C39.0992 3.32254 38.6223 3.125 38.125 3.125ZM28.75 24.375V4.375H38.125C38.2908 4.375 38.4497 4.44085 38.5669 4.55806C38.6842 4.67527 38.75 4.83424 38.75 5V24.375H28.75Z" fill="black"/>
<path d="M31.875 11.25H30.625C30.4592 11.25 30.3003 11.3158 30.1831 11.4331C30.0658 11.5503 30 11.7092 30 11.875V16.875C30 17.0408 30.0658 17.1997 30.1831 17.3169C30.3003 17.4342 30.4592 17.5 30.625 17.5H31.875C32.3723 17.5 32.8492 17.3025 33.2008 16.9508C33.5525 16.5992 33.75 16.1223 33.75 15.625V13.125C33.75 12.6277 33.5525 12.1508 33.2008 11.7992C32.8492 11.4475 32.3723 11.25 31.875 11.25ZM32.5 15.625C32.5 15.7908 32.4342 15.9497 32.3169 16.0669C32.1997 16.1842 32.0408 16.25 31.875 16.25H31.25V12.5H31.875C32.0408 12.5 32.1997 12.5658 32.3169 12.6831C32.4342 12.8003 32.5 12.9592 32.5 13.125V15.625ZM25.625 17.5C25.7908 17.5 25.9497 17.4342 26.0669 17.3169C26.1842 17.1997 26.25 17.0408 26.25 16.875V11.875C26.25 11.7092 26.1842 11.5503 26.0669 11.4331C25.9497 11.3158 25.7908 11.25 25.625 11.25H24.375C23.8777 11.25 23.4008 11.4475 23.0492 11.7992C22.6975 12.1508 22.5 12.6277 22.5 13.125V15.625C22.5 16.1223 22.6975 16.5992 23.0492 16.9508C23.4008 17.3025 23.8777 17.5 24.375 17.5H25.625ZM23.75 15.625V13.125C23.75 12.9592 23.8158 12.8003 23.9331 12.6831C24.0503 12.5658 24.2092 12.5 24.375 12.5H25V16.25H24.375C24.2092 16.25 24.0503 16.1842 23.9331 16.0669C23.8158 15.9497 23.75 15.7908 23.75 15.625ZM2.5 19.375H13.75C13.9158 19.375 14.0747 19.3092 14.1919 19.1919C14.3092 19.0747 14.375 18.9158 14.375 18.75V6.25C14.375 6.08424 14.3092 5.92527 14.1919 5.80806C14.0747 5.69085 13.9158 5.625 13.75 5.625H2.5C2.33424 5.625 2.17527 5.69085 2.05806 5.80806C1.94085 5.92527 1.875 6.08424 1.875 6.25V18.75C1.875 18.9158 1.94085 19.0747 2.05806 19.1919C2.17527 19.3092 2.33424 19.375 2.5 19.375ZM3.125 6.875H13.125V18.125H3.125V6.875Z" fill="black"/>
<path d="M11.875 7.5H4.375C4.20924 7.5 4.05027 7.56585 3.93306 7.68306C3.81585 7.80027 3.75 7.95924 3.75 8.125V16.875C3.75 17.0408 3.81585 17.1997 3.93306 17.3169C4.05027 17.4342 4.20924 17.5 4.375 17.5H11.875C12.0408 17.5 12.1997 17.4342 12.3169 17.3169C12.4342 17.1997 12.5 17.0408 12.5 16.875V8.125C12.5 7.95924 12.4342 7.80027 12.3169 7.68306C12.1997 7.56585 12.0408 7.5 11.875 7.5ZM11.25 11.875H8.75V8.75H11.25V11.875ZM7.5 8.75V11.875H5V8.75H7.5ZM5 13.125H7.5V16.25H5V13.125ZM8.75 16.25V13.125H11.25V16.25H8.75ZM34.375 36.875H35.625V38.125H34.375V36.875Z" fill="black"/>
</g>
<defs>
<clipPath id="clip0_37_159">
<rect width="40" height="40" fill="white"/>
</clipPath>
</defs>
</svg>
