<svg width="40" height="40" viewBox="0 0 40 40" fill="none" xmlns="http://www.w3.org/2000/svg">
<path d="M26.2849 31.2386V39.2744H12.4191V29.1901C11.4622 29.1901 10.5952 28.8022 9.96727 28.1751C9.34024 27.5481 8.95227 26.6811 8.95227 25.7242V20.0511H34.9506V22.5727C34.9506 27.3585 31.0706 31.2386 26.2849 31.2386Z" fill="#F2F2F2"/>
<path d="M12.2894 26.8163C11.6623 26.1893 11.2744 25.3223 11.2744 24.3654V20.0511H8.95227V25.7242C8.95227 26.6811 9.34024 27.5481 9.96727 28.1751C10.5952 28.8022 11.4622 29.1901 12.4191 29.1901V39.2744H14.7413V28.953C14.7413 28.3636 14.3421 27.8589 13.7759 27.6951C13.2143 27.532 12.703 27.2297 12.2894 26.8163Z" fill="#E6E6E6"/>
<path d="M9.09836 20.0515H34.9506V22.3486H9.09836V20.0515Z" fill="#E6E6E6"/>
<path d="M36.5617 18.44C36.5617 19.3302 35.8408 20.051 34.9507 20.051H15.8851V16.828H34.9506C35.1622 16.8278 35.3717 16.8694 35.5671 16.9505C35.7626 17.0315 35.9401 17.1503 36.0894 17.3002C36.2395 17.4496 36.3585 17.6273 36.4395 17.8229C36.5206 18.0185 36.5621 18.2283 36.5617 18.44Z" fill="#F4550F"/>
<path d="M36.5617 18.4401C36.5617 19.3302 35.8409 20.0511 34.9507 20.0511H15.8851V18.4401H36.5617Z" fill="#D6400B"/>
<path d="M15.8851 4.24353V5.3079H3.4379V4.24353C3.4379 3.26235 4.23329 2.46704 5.21344 2.46704H14.1095C15.0898 2.46696 15.8851 3.26235 15.8851 4.24353Z" fill="#CCCCCC"/>
<path d="M9.27719 2.46692H5.21344C4.23329 2.46692 3.4379 3.26231 3.4379 4.2434V5.30778H7.50165V4.24348C7.50165 3.26231 8.29704 2.46692 9.27719 2.46692Z" fill="#B3B3B3"/>
<path d="M15.8851 16.828V20.0511H7.02094C5.04219 20.0511 3.4379 18.4468 3.4379 16.468V5.30786H15.8851V16.828Z" fill="#F2F2F2"/>
<path d="M7.79196 16.4681V5.30786H3.4379V16.4681C3.4379 18.4468 5.04219 20.0511 7.02094 20.0511H11.3749C9.39618 20.0511 7.79196 18.4468 7.79196 16.4681Z" fill="#E6E6E6"/>
<path d="M26.2849 29.5452C26.0943 29.5424 25.9124 29.4647 25.7786 29.3289C25.6448 29.1931 25.5698 29.0102 25.5698 28.8195C25.5698 28.6289 25.6448 28.4459 25.7786 28.3101C25.9124 28.1743 26.0943 28.0966 26.2849 28.0938C28.8947 28.0938 31.1694 26.2393 31.6936 23.6842C31.7742 23.2915 32.1577 23.0391 32.5503 23.1191C32.7388 23.1578 32.9043 23.2698 33.0102 23.4305C33.1162 23.5911 33.154 23.7873 33.1154 23.9758C32.4533 27.203 29.5807 29.5452 26.2849 29.5452ZM13.529 17.8745C13.3366 17.8745 13.152 17.798 13.0159 17.6619C12.8798 17.5258 12.8034 17.3413 12.8033 17.1488V10.3276C12.8061 10.1369 12.8838 9.95507 13.0196 9.82125C13.1554 9.68744 13.3384 9.61243 13.529 9.61243C13.7197 9.61243 13.9027 9.68744 14.0385 9.82125C14.1743 9.95507 14.252 10.1369 14.2548 10.3276V17.1488C14.2547 17.3413 14.1783 17.5258 14.0422 17.6619C13.9061 17.798 13.7215 17.8745 13.529 17.8745Z" fill="white"/>
<path d="M13.529 8.58654C13.9298 8.58654 14.2547 8.26163 14.2547 7.86083C14.2547 7.46004 13.9298 7.13513 13.529 7.13513C13.1282 7.13513 12.8033 7.46004 12.8033 7.86083C12.8033 8.26163 13.1282 8.58654 13.529 8.58654Z" fill="white"/>
<path d="M37.2879 18.4398C37.2879 17.1509 36.2393 16.1022 34.9502 16.1022H16.611V4.24349C16.611 2.86411 15.4888 1.74177 14.1094 1.74177H10.3872V0.725752C10.3844 0.535128 10.3067 0.353259 10.1709 0.219445C10.0351 0.0856317 9.85212 0.0106201 9.66147 0.0106201C9.47083 0.0106201 9.28784 0.0856317 9.15205 0.219445C9.01626 0.353259 8.93857 0.535128 8.93577 0.725752V1.74177H5.21382C3.83444 1.74177 2.7121 2.86411 2.7121 4.24349V16.4683C2.7121 18.8443 4.64514 20.7774 7.02116 20.7774H8.22671V25.7239C8.22671 27.788 9.72632 29.5084 11.6931 29.8532V39.2743C11.6931 39.4668 11.7696 39.6514 11.9057 39.7875C12.0418 39.9236 12.2264 40 12.4188 40H26.2844C26.4768 40 26.6614 39.9236 26.7975 39.7875C26.9336 39.6514 27.01 39.4668 27.0101 39.2743V31.9367C31.8511 31.5652 35.676 27.5074 35.676 22.5729V20.6617C36.6108 20.3554 37.2879 19.4754 37.2879 18.4398ZM5.21382 3.1931H14.1092C14.6883 3.1931 15.1594 3.66435 15.1594 4.24341V4.58208H4.1635V4.24341C4.1635 3.66435 4.63475 3.1931 5.21382 3.1931ZM4.1635 16.4683V6.03349H15.1596V19.326H7.02124C5.44546 19.326 4.1635 18.044 4.1635 16.4683ZM34.2247 22.5728C34.2247 26.9511 30.6626 30.513 26.2844 30.513H20.8237C20.6331 30.5158 20.4512 30.5935 20.3174 30.7293C20.1836 30.8651 20.1086 31.0481 20.1086 31.2387C20.1086 31.4294 20.1836 31.6123 20.3174 31.7481C20.4512 31.8839 20.6331 31.9616 20.8237 31.9644H25.5587V38.5487H13.1446V29.1904C13.1446 28.9979 13.0681 28.8133 12.932 28.6772C12.7959 28.5411 12.6114 28.4647 12.4189 28.4647C10.9077 28.4647 9.67819 27.2351 9.67819 25.7239V20.7774H34.2246V22.5728H34.2247ZM34.9504 19.326H16.611V17.5536H34.9504C35.4391 17.5536 35.8366 17.9511 35.8366 18.4399C35.8365 18.9285 35.439 19.326 34.9504 19.326Z" fill="#333333"/>
</svg>
